<?xml version="1.0" encoding="UTF-8"?> <svg xmlns="http://www.w3.org/2000/svg" width="78" height="16" viewBox="0 0 78 16"> <g fill="none" fill-rule="evenodd"> <path fill="#000" d="M3.12402344,15 L3.12402344,9.51171875 L8.85644531,9.51171875 L8.85644531,7.09960938 L3.12402344,7.09960938 L3.12402344,3.42773438 L9.40332031,3.42773438 L9.40332031,0.908203125 L0.174804688,0.908203125 L0.174804688,15 L3.12402344,15 Z M15.1064453,0.908203125 L12.1572266,0.908203125 L12.1572266,10.1367188 C12.1572266,13.2617188 14.4521484,15.3613281 18.0556641,15.3613281 C21.6689453,15.3613281 23.9638672,13.2617188 23.9638672,10.1367188 L23.9638672,0.908203125 L21.0146484,0.908203125 L21.0146484,9.83398438 C21.0146484,11.6113281 19.9501953,12.7441406 18.0556641,12.7441406 C16.1708984,12.7441406 15.1064453,11.6113281 15.1064453,9.83398438 L15.1064453,0.908203125 Z M36.7373047,12.4804688 L30.3505859,12.4804688 L30.3505859,9.05273438 L36.3759766,9.05273438 L36.3759766,6.71875 L30.3505859,6.71875 L30.3505859,3.42773438 L36.7373047,3.42773438 L36.7373047,0.908203125 L27.4013672,0.908203125 L27.4013672,15 L36.7373047,15 L36.7373047,12.4804688 Z M49.0615234,12.4316406 L42.7919922,12.4316406 L42.7919922,0.908203125 L39.8427734,0.908203125 L39.8427734,15 L49.0615234,15 L49.0615234,12.4316406 Z"></path> <path fill="#23ACCB" d="M54.4716797,0.908203125 L51.5224609,0.908203125 L51.5224609,10.1367188 C51.5224609,13.2617188 53.8173828,15.3613281 57.4208984,15.3613281 C61.0341797,15.3613281 63.3291016,13.2617188 63.3291016,10.1367188 L63.3291016,0.908203125 L60.3798828,0.908203125 L60.3798828,9.83398438 C60.3798828,11.6113281 59.3154297,12.7441406 57.4208984,12.7441406 C55.5361328,12.7441406 54.4716797,11.6113281 54.4716797,9.83398438 L54.4716797,0.908203125 Z M66.7666016,0.908203125 L72.6455078,0.908203125 C75.5458984,0.908203125 77.5283203,2.8515625 77.5283203,5.78125 C77.5283203,8.68164062 75.4677734,10.625 72.4990234,10.625 L69.7158203,10.625 L69.7158203,15 L66.7666016,15 L66.7666016,0.908203125 Z M69.7158203,3.33007812 L69.7158203,8.23242188 L71.8544922,8.23242188 C73.5439453,8.23242188 74.5302734,7.37304688 74.5302734,5.79101562 C74.5302734,4.18945312 73.5634766,3.33007812 71.8642578,3.33007812 L69.7158203,3.33007812 Z"></path> </g> </svg> 